<svg width="39" height="39" viewBox="0 0 39 39" fill="none" xmlns="http://www.w3.org/2000/svg">
<path d="M24.4823 12.5702C24.6812 11.9622 24.7641 11.0865 24.6481 10.5965C24.5487 10.0902 24.2669 9.50845 24.0349 9.29104C23.8028 9.07363 23.289 8.84642 22.9243 8.79076C22.5265 8.73582 21.8634 8.8455 21.4656 9.01299C21.0512 9.19673 20.4379 9.60721 20.1229 9.9159C19.8079 10.2246 19.3769 10.9966 19.178 11.6364C18.9459 12.2769 18.8464 13.137 18.9127 13.5487C18.9955 13.9759 19.3105 14.5569 19.6585 14.8831C20.1227 15.3179 20.5205 15.4682 21.2001 15.4376C21.9626 15.4211 22.3107 15.2705 23.1229 14.538C23.902 13.8697 24.2004 13.4184 24.4823 12.5702Z" fill="#FF8601"/>
<path d="M29.2891 18.2177C29.9356 17.3934 30.1345 16.9125 30.1345 16.2452C30.1511 15.6887 29.9688 15.1684 29.687 14.9044C29.4384 14.6714 28.8251 14.4146 28.3112 14.3145C27.7808 14.2306 26.8526 14.3143 26.2227 14.5186C25.5928 14.7229 24.8137 15.1687 24.4821 15.4936C24.134 15.8348 23.703 16.4479 23.5372 16.8328C23.3715 17.2495 23.2886 17.9027 23.3714 18.2663C23.4543 18.6617 23.6863 19.1334 23.8852 19.3197C24.1007 19.5216 24.6974 19.7629 25.2113 19.863C25.7417 19.9469 26.67 19.8632 27.2999 19.6589C28.2779 19.3359 28.5431 19.1395 29.2891 18.2177Z" fill="#FF8601"/>
<path d="M16.9569 10.0003C16.8243 9.59008 16.6254 9.08596 16.5094 8.85015C16.3768 8.63058 16.0618 8.30375 15.7966 8.11883C15.5149 7.95016 14.885 7.83668 14.3545 7.84816C13.7246 7.89357 13.2274 8.09499 12.8792 8.43617C12.5809 8.72862 12.183 9.40453 11.9675 9.90173C11.7686 10.4145 11.6525 11.4179 11.7188 12.1473C11.8016 13.1465 11.9673 13.556 12.448 14.0064C12.7961 14.3325 13.2934 14.6713 13.5752 14.7446C13.8569 14.818 14.4205 14.774 14.8184 14.6383C15.2162 14.5026 15.7301 14.2213 15.9456 14.0101C16.1445 13.8152 16.4594 13.3476 16.6086 12.9789C16.7578 12.6103 16.9568 11.9387 17.0397 11.5079C17.1226 11.0771 17.0729 10.395 16.9569 10.0003Z" fill="#FF8601"/>
<path d="M30.764 25.1289C31.0293 24.7419 31.2116 24.1183 31.1951 23.6897C31.1619 23.2455 30.9133 22.7266 30.5984 22.4315C30.3 22.152 29.5707 21.7865 28.974 21.6087C28.3441 21.4317 27.3661 21.3416 26.8025 21.4174C26.2058 21.4939 25.4267 21.7808 24.9957 22.1079C24.4818 22.5162 24.1669 22.952 23.9845 23.5121C23.8021 24.0403 23.8353 24.5798 24.0507 24.9723C24.2331 25.302 24.6474 25.7538 24.9955 25.9529C25.3105 26.1526 26.1227 26.4051 26.7857 26.4861C27.5648 26.6122 28.3936 26.499 29.1395 26.2127C29.9352 25.9095 30.4325 25.581 30.764 25.1289Z" fill="#FF8601"/>
<path d="M21.664 20.6389C21.4817 20.1185 21.2165 19.4569 21.0507 19.1745C20.9016 18.8759 20.338 18.3161 19.8242 17.8982C19.3103 17.5121 18.3489 17.0245 17.6859 16.8164C17.0395 16.6239 15.9289 16.4732 15.1995 16.4889C14.4702 16.5047 13.0281 16.7743 12.0003 17.1143C10.4587 17.6084 9.9283 17.8741 9.13262 18.6539C8.18774 19.5482 8.15459 19.6443 8.22084 20.8186C8.25396 21.4852 8.55228 22.5591 8.88377 23.1874C9.26499 23.9259 10.0606 24.9573 11.2043 26.1242C12.5137 27.4464 13.2928 28.0809 14.3039 28.6469C15.0498 29.0597 16.1272 29.4654 16.6742 29.5648C17.2875 29.6627 18.1495 29.5805 18.7628 29.3607C19.3264 29.1578 19.9563 28.8265 20.1718 28.6152C20.3707 28.4203 20.8183 27.6321 21.1664 26.846C21.5477 25.9639 21.813 24.7507 21.8793 23.51C21.9457 22.4599 21.8463 21.1592 21.664 20.6389Z" fill="#FF8601"/>
</svg>
