<svg width="123" height="70" viewBox="0 0 123 70" fill="none" xmlns="http://www.w3.org/2000/svg">
<path fill-rule="evenodd" clip-rule="evenodd" d="M24.1642 0C25.0785 0 26.1888 0.321385 26.6459 0.771323C27.1031 1.22126 27.4296 2.31397 27.4296 3.21385C27.4296 4.11372 26.9725 5.97776 26.45 7.39185C25.8622 8.80594 25.601 10.0915 25.8622 10.2843C26.0582 10.4771 29.5195 11.5698 33.5687 12.7268C37.5525 13.8838 41.6669 14.9765 42.7772 15.1694C44.2793 15.4265 45.3895 15.1051 47.5447 13.5624C49.0468 12.4697 51.7898 10.8628 53.5531 9.96293C55.3818 9.06305 57.341 8.356 57.9941 8.356C58.5819 8.356 59.4962 8.67739 59.9534 9.12733C60.4105 9.57726 60.7371 10.7342 60.7371 11.7627C60.7371 12.7268 59.4309 16.7763 57.8635 20.7614C56.2308 24.6823 54.4674 30.0173 53.945 32.4599C53.4225 34.9024 52.7694 38.8233 52.5082 41.1372C52.247 43.5798 52.3776 47.1793 52.8347 49.8146C53.2919 52.2571 54.4021 55.9209 55.2511 57.8492C56.1655 59.7775 57.537 62.0915 58.2553 62.9914C58.9737 63.8913 60.6065 65.2411 61.9126 66.0124C63.48 66.9766 65.374 67.4908 67.268 67.4908C69.0313 67.4908 71.5783 66.848 73.6682 65.8839C75.5622 64.984 77.3908 63.5699 77.9133 62.67C78.3051 61.7701 78.5664 60.9988 78.3704 60.8703C78.1745 60.806 76.9336 60.2275 75.6275 59.5847C74.256 59.0062 72.558 57.5279 71.8396 56.4352C71.1212 55.2782 70.5334 53.4784 70.5334 52.3857C70.4681 51.2287 71.0559 49.9432 71.9049 49.1719C72.9498 48.2077 74.4519 47.822 77.9786 47.6292C81.244 47.5007 83.3339 47.6935 85.0972 48.4648C87.383 49.429 87.5136 49.6218 87.5136 52.5785C87.4483 55.2139 87.1218 55.9209 84.836 58.1706C83.3992 59.5847 82.2236 61.1274 82.289 61.5773C82.289 61.963 83.5298 63.3771 85.0972 64.5983C86.5993 65.8839 88.9504 67.1694 90.3219 67.4908C91.6281 67.8764 93.522 67.9407 94.567 67.7479C95.5466 67.4908 97.3753 66.7837 98.6161 66.141C99.857 65.5625 101.686 64.2127 102.6 63.1842C103.58 62.2201 105.016 60.0989 105.8 58.492C106.845 56.4994 107.367 53.9926 107.629 50.4574C107.759 47.6292 107.563 42.937 107.172 39.9803C106.78 37.0878 105.996 33.9382 105.474 32.9741C104.886 31.9456 103.122 29.1175 101.555 26.6749C99.9223 24.2324 98.3549 21.1471 97.963 19.9259C97.6365 18.7046 97.5712 17.2905 97.8324 16.8406C98.0937 16.3906 98.7467 15.8764 99.2692 15.6836C99.7917 15.555 100.837 15.8121 101.555 16.2621C102.273 16.7763 103.514 18.3832 104.233 19.9901C105.016 21.5328 106.192 25.0037 106.78 27.6391C107.89 32.1385 108.217 32.717 112.07 36.5093C114.356 38.6947 116.707 40.4945 117.229 40.4945C117.752 40.4945 118.862 39.8517 119.646 39.0804C120.952 37.6663 121.017 37.2163 120.625 30.5315C120.429 26.6107 119.776 22.047 119.319 20.2472C118.797 18.5118 117.49 15.2979 116.38 13.1768C115.335 11.0556 113.507 8.48456 112.331 7.39185C110.633 5.78492 109.849 5.46354 107.563 5.65637C106.061 5.72065 102.731 6.42769 100.249 7.19902C97.7671 7.90606 95.416 8.80594 95.0895 9.12733C94.6976 9.38443 93.9139 9.64154 93.2608 9.64154C92.6077 9.64154 92.0853 9.32016 92.0853 8.99877C92.0853 8.67739 93.0649 7.97034 94.2404 7.45613C95.3507 6.94191 99.008 5.72065 102.208 4.75649C107.629 3.14957 108.282 3.08529 110.372 3.92089C111.613 4.43511 113.18 5.39926 113.833 6.10631C114.551 6.81336 115.858 8.54883 116.772 9.96293C117.752 11.377 118.862 13.5624 119.384 14.7837C119.841 16.005 120.69 18.5118 121.213 20.2472C121.735 22.047 122.323 26.3535 122.519 29.8888C122.846 34.7738 122.715 36.8307 121.997 38.5662C121.474 39.7874 120.299 41.2015 119.45 41.7157C118.209 42.4228 117.49 42.4228 115.923 41.8443C114.878 41.4586 112.853 40.0445 108.935 36.3165L109.392 43.7083C109.784 48.979 109.653 52.1286 109.066 54.6354C108.608 56.5637 107.694 59.1991 107.106 60.4203C106.453 61.6416 104.951 63.5699 103.71 64.6626C102.535 65.7553 100.379 67.3622 98.9427 68.1978C96.9834 69.3548 95.416 69.7405 92.7383 69.6762C90.126 69.6762 88.428 69.2263 86.534 68.1336C85.0972 67.2337 83.2686 65.8839 82.4849 65.1125C81.6359 64.2769 80.7869 63.6342 80.5256 63.6342C80.1991 63.5699 79.4154 64.2127 78.697 64.984C77.9786 65.7553 76.2152 66.9123 74.7785 67.6193C73.3417 68.3907 70.5334 69.0977 68.5741 69.2905C65.7658 69.4834 64.3944 69.2905 62.3698 68.2621C60.933 67.5551 58.8431 66.0124 57.7329 64.7912C56.6226 63.6342 55.2511 61.8987 54.6634 60.9345C54.0756 59.9061 52.9 57.2065 52.1163 54.8282C51.0714 51.4858 50.7449 48.9148 50.7449 43.7083C50.7449 39.4018 51.1367 35.4166 51.8551 32.7812C52.4429 30.4673 53.4878 26.9963 54.2062 25.068C54.8593 23.1397 56.1655 19.6045 57.0798 17.2262C57.9941 14.7837 58.7778 12.4054 58.7778 11.8912C58.7778 11.2485 58.1247 10.9271 57.0145 10.9271C55.9695 10.9271 52.9653 12.2769 49.9611 14.1409C47.0876 15.9407 44.2793 17.3548 43.7568 17.3548C43.2344 17.3548 41.9282 17.0977 40.8179 16.7763C39.7077 16.4549 36.6382 15.555 33.9605 14.7837C31.2829 14.0124 27.6909 12.9839 25.9929 12.4697C24.2295 11.9555 22.858 11.5056 22.858 11.4413C22.858 11.3127 23.4458 9.57726 24.1642 7.58468C24.8826 5.52782 25.4704 3.40668 25.4704 2.89246C25.4704 2.37825 24.8826 1.92831 24.1642 1.92831C23.4458 1.92831 21.0294 3.14957 18.7436 4.62794C16.5231 6.10631 14.3026 7.64896 13.7801 8.03462C13.2577 8.356 10.9066 10.6057 8.55544 12.9197C5.2247 16.1978 3.98383 17.9333 3.13482 20.6329C2.48173 22.5612 1.95926 25.8393 1.95926 27.9605C1.95926 30.0816 2.54704 34.0025 3.26543 36.6379C4.04914 39.2732 6.13902 44.3511 7.90235 47.8863C9.731 51.4216 14.2471 57.1377 14.2471 58.2158C14.8349 59.1156 14.5638 59.4562 15.87 61.8987C17.6987 65.1125 18.0252 66.2053 17.3068 66.2053C16.7843 66.2053 15.021 64.0841 13.4536 61.5773C11.8209 59.0062 9.0126 53.9926 7.18396 50.4574C5.29 46.9222 2.93889 41.5229 1.89395 38.4376C0.457161 34.1953 0 31.56 0 27.9605C0 24.5538 0.391852 22.047 1.43679 19.4759C2.41642 16.7763 3.91852 14.6551 6.7921 11.8912C9.0126 9.77009 11.8209 7.13474 13.0617 6.10631C14.3026 5.07788 16.9803 3.27812 18.9395 2.12114C20.8988 0.964154 23.2499 0 24.1642 0ZM14.8251 18.6403C14.9557 18.6403 15.6088 18.8974 16.3272 19.2831C17.0456 19.6687 17.6333 20.5043 17.6333 21.2114C17.6333 21.9184 17.0456 22.754 16.3272 23.1397C15.4129 23.5896 14.6945 23.5254 14.0414 23.0111C13.4536 22.5612 12.9311 21.7256 12.9311 21.1471C12.8658 20.6329 13.1924 19.8616 13.7148 19.4116C14.2373 18.9617 14.6945 18.6403 14.8251 18.6403ZM33.9605 25.068C34.6789 25.068 35.5279 25.5822 35.9198 26.225C36.3116 26.932 36.2463 27.7034 35.7239 28.4747C35.2667 29.1817 34.3524 29.5674 33.634 29.4388C32.9156 29.3746 32.2625 28.6675 32.1319 27.9605C32.0013 27.2534 32.0666 26.2893 32.2625 25.9036C32.4584 25.4537 33.2421 25.068 33.9605 25.068ZM18.8089 29.5674C19.3967 29.5674 21.0294 29.8888 22.4009 30.2102C24.0336 30.6601 24.9479 31.3029 25.2092 32.3313C25.4704 33.3597 25.2092 34.0668 24.0989 34.8381C23.2499 35.4809 21.9437 36.1236 21.2253 36.3807C20.5069 36.5736 19.5926 36.3807 19.2008 35.8665C18.8089 35.4166 18.1558 34.0668 17.6987 32.9741C17.3068 31.8171 17.1109 30.5958 17.3068 30.2102C17.568 29.8245 18.2211 29.5674 18.8089 29.5674ZM89.7995 29.5674C90.7791 29.5674 91.6281 30.0173 91.8893 30.7244C92.0852 31.3029 91.9546 32.267 91.6281 32.7812C91.2362 33.2955 90.4525 33.7454 89.7995 33.7454C89.1464 33.7454 88.3627 33.2955 87.9708 32.7812C87.6443 32.267 87.5136 31.3029 87.7096 30.7244C87.9708 30.0173 88.8198 29.5674 89.7995 29.5674Z" fill="black"/>
<path fill-rule="evenodd" clip-rule="evenodd" d="M71.78 34.4521C72.4598 34.0616 73.1001 33.6938 73.7404 32.9151C74.0799 32.5021 74.4511 32.1277 74.8127 31.7631C76.389 30.1732 77.7811 28.7691 75.5604 25.1681C72.8304 20.7413 68.2804 16.3144 65.5504 17.4211C62.8204 18.5279 59.1804 26.2749 59.1804 28.4884C59.1804 30.7018 59.1804 39.5555 62.8204 40.6622C65.7324 41.5475 67.0671 40.2932 67.3704 39.5554C69.14 35.9686 70.5272 35.1717 71.78 34.4521ZM65.8481 32.6947C66.4022 33.0196 67.7321 33.4744 68.6187 32.6947C69.7269 31.72 68.6187 29.7705 68.0646 29.7705C67.9646 29.7705 67.8465 29.7547 67.717 29.7372C67.1285 29.6581 66.3023 29.547 65.8481 30.7452C65.4048 31.9149 65.6634 32.3698 65.8481 32.6947Z" fill="black"/>
</svg>
